<svg width="228" height="56.7" xmlns="http://www.w3.org/2000/svg"><g id="Page-1" stroke="none" stroke-width="1" fill="none" fill-rule="evenodd"><g id="index-copy-9" transform="translate(-100 -70)" fill="#000" fill-rule="nonzero"><g id="nav" transform="translate(0 70)"><g id="Leamo-Logo" transform="translate(100)"><path d="M200.527 44.729c-1.506-2.191-2.246-5.396-2.246-9.587 0-4.136.767-7.313 2.3-9.477 1.535-2.164 3.836-3.26 6.958-3.26 3.095 0 5.424 1.096 6.957 3.26 1.534 2.164 2.301 5.341 2.301 9.477s-.767 7.34-2.3 9.56c-1.534 2.218-3.835 3.341-6.958 3.341-3.177-.027-5.533-1.123-7.012-3.314m15.448 10.518c2.548-.986 4.712-2.41 6.492-4.273 1.78-1.863 3.15-4.136 4.109-6.793.958-2.657 1.424-5.697 1.424-9.066 0-3.314-.466-6.3-1.397-8.984-.931-2.657-2.3-4.93-4.081-6.766-1.78-1.835-3.944-3.26-6.492-4.245-2.547-.986-5.396-1.48-8.546-1.48-3.095 0-5.943.494-8.463 1.48-2.548.986-4.712 2.41-6.492 4.245-1.78 1.835-3.15 4.081-4.109 6.766-.958 2.657-1.424 5.67-1.424 8.984 0 6.93 1.78 12.27 5.369 15.996 3.588 3.725 8.628 5.588 15.147 5.588 3.095.027 5.944-.466 8.463-1.452m-92.47.247h10.874V31.088c0-1.177.219-2.3.657-3.314.438-1.013 1.013-1.89 1.753-2.602.877-.876 1.78-1.506 2.684-1.863a8.151 8.151 0 0 1 2.986-.547c.685 0 1.315.11 1.945.301.63.22 1.15.575 1.588 1.096.439.52.795 1.232 1.041 2.136.247.904.384 2.082.384 3.533v25.666h10.874V30.623c0-1.041.219-2.027.657-2.958a8.743 8.743 0 0 1 1.753-2.493c.877-.876 1.78-1.506 2.684-1.863a8.151 8.151 0 0 1 2.986-.547c.685 0 1.315.11 1.945.301.63.22 1.15.575 1.588 1.096.439.52.795 1.232 1.041 2.136.247.904.384 2.082.384 3.533v25.666h10.874V28.377c0-5.177-1.041-8.93-3.15-11.23-2.11-2.301-5.26-3.452-9.45-3.452-2.492 0-4.766.548-6.848 1.644-2.081 1.095-4.053 2.876-5.916 5.368-.767-2.273-2.11-4.026-3.972-5.204s-4.273-1.78-7.23-1.78c-2.22 0-4.356.548-6.383 1.643-2.027 1.096-3.78 2.767-5.286 5.04v-5.478h-10.573v40.566h.11ZM106.878 39.47c0 1.67-.3 3.04-.93 4.163a8.72 8.72 0 0 1-2.411 2.767c-1.753 1.287-4.054 1.945-6.848 1.945-1.67 0-2.958-.384-3.89-1.178-.93-.767-1.396-1.835-1.396-3.178 0-.876.137-1.67.383-2.41.247-.712.767-1.37 1.507-1.917.74-.548 1.835-.986 3.232-1.37 1.397-.356 3.232-.602 5.505-.712l4.821-.247v2.137h.027Zm.22 16.024h10.271V29.856c0-2.493-.301-4.739-.904-6.71-.602-2-1.561-3.699-2.876-5.096-1.315-1.396-3.068-2.465-5.259-3.232-2.164-.74-4.82-1.123-7.916-1.123-5.067 0-9.12.959-12.134 2.849-3.013 1.89-4.875 4.958-5.588 9.203l9.943.932c.63-3.26 3.095-4.903 7.396-4.903 1.862 0 3.478.465 4.848 1.397 1.37.93 2.054 2.629 2.054 5.122v2.026l-5.204.247c-2.602.11-5.15.356-7.642.767-2.52.41-4.766 1.123-6.793 2.109s-3.643 2.356-4.903 4.109c-1.232 1.753-1.862 4.053-1.862 6.847 0 2.137.356 3.945 1.095 5.478.712 1.534 1.698 2.794 2.904 3.78 1.205.986 2.63 1.699 4.273 2.164a18.76 18.76 0 0 0 5.176.712c3.15 0 5.725-.575 7.725-1.698 2-1.15 3.807-2.602 5.396-4.437v5.095Zm-57.11-24.79c.055-1.232.274-2.382.712-3.45.411-1.069.986-2 1.753-2.794.74-.794 1.671-1.424 2.767-1.917 1.095-.466 2.355-.713 3.807-.713 2.903 0 5.04.767 6.41 2.329 1.369 1.56 2.054 3.725 2.054 6.519H49.988v.027Zm16.927 12.108c-.767 3.615-3.314 5.45-7.614 5.45-3.095 0-5.45-.93-6.985-2.766-1.561-1.835-2.383-4.383-2.492-7.642h28.13v-4.355c0-6.054-1.561-10.874-4.711-14.462-3.123-3.589-7.807-5.37-14.024-5.37-3.013 0-5.752.494-8.245 1.425-2.493.959-4.629 2.383-6.41 4.246-1.78 1.862-3.177 4.136-4.163 6.793-.986 2.657-1.479 5.724-1.479 9.12 0 6.848 1.698 12.135 5.095 15.86 3.396 3.725 8.464 5.588 15.202 5.588 5.587 0 9.86-1.178 12.791-3.534 2.93-2.355 4.739-5.807 5.478-10.38H66.915v.027ZM0 55.494h36.594l1.233-9.943h-26.24V0H0v55.494Z" id="Shape"/></g></g></g></g></svg>