<?xml version="1.0" encoding="UTF-8"?>
<svg width="224px" height="54px" viewBox="0 0 224 54" version="1.1" xmlns="http://www.w3.org/2000/svg" xmlns:xlink="http://www.w3.org/1999/xlink">
    <title>logo-alterfood-black</title>
    <g id="Page-1" stroke="none" stroke-width="1" fill="none" fill-rule="evenodd">
        <g id="index-copy-9" transform="translate(-526.000000, -4946.000000)" fill="#000000" fill-rule="nonzero">
            <g id="footer" transform="translate(0.000000, 4873.000000)">
                <g id="logo-alterfood-black" transform="translate(526.000000, 73.000000)">
                    <g id="Group">
                        <path d="M17.7761468,25.9573171 L8.52844037,25.9573171 L6.57614679,32.4969512 L0,32.4969512 L10.4807339,0.301829268 L15.7211009,0.301829268 L26.2018349,32.4969512 L19.6256881,32.4969512 L17.7761468,25.9573171 Z M16.3376147,20.8262195 L13.2550459,9.96036585 L10.1724771,20.8262195 L16.3376147,20.8262195 Z" id="Shape"></path>
                        <path d="M52.8146789,28.875 C51.2733945,30.9878049 48.3963303,32.8993902 44.5944954,32.8993902 C37.9155963,32.8993902 34.4220183,28.9756098 34.4220183,21.3292683 L34.4220183,5.83536585 L23.9412844,5.83536585 L23.9412844,0.402439024 L40.4844037,0.402439024 L40.4844037,21.9329268 C40.4844037,25.7560976 42.0256881,27.4664634 44.4917431,27.4664634 C46.1357798,27.4664634 47.1633028,26.7621951 47.9853211,25.6554878 L52.8146789,28.875 Z" id="Path"></path>
                        <path d="M62.1651376,16.097561 L62.1651376,23.6432927 C62.1651376,27.7682927 66.8917431,28.1707317 69.666055,26.7621951 L71.9266055,31.2896341 C70.3853211,32.2957317 68.6385321,32.8993902 65.3504587,32.8993902 C59.493578,32.8993902 56.2055046,28.6737805 56.2055046,23.3414634 L56.2055046,16.097561 L50.2458716,16.097561 L50.2458716,10.5640244 L56.2055046,10.5640244 L56.2055046,2.91768293 L62.1651376,1.10670732 L62.1651376,10.6646341 L71.9266055,10.6646341 L71.9266055,16.097561 L62.1651376,16.097561 Z" id="Path"></path>
                        <path d="M97.2036697,23.7439024 L81.9963303,23.7439024 C82.612844,25.8567073 84.359633,27.3658537 87.2366972,27.3658537 C89.2917431,27.3658537 91.0385321,26.3597561 92.066055,25.3536585 L95.9706422,28.875 C94.2238532,31.2896341 90.6275229,32.8993902 87.2366972,32.8993902 C80.2495413,32.8993902 75.8311927,27.8689024 75.8311927,21.5304878 C75.8311927,15.1920732 79.9412844,10.1615854 87.0311927,10.1615854 C91.1412844,10.1615854 97.5119266,12.5762195 97.5119266,21.1280488 C97.4091743,22.0335366 97.306422,22.8384146 97.2036697,23.7439024 Z M81.893578,19.4176829 L91.4495413,19.4176829 C91.2440367,17.6067073 89.7027523,15.7957317 86.8256881,15.7957317 C84.0513761,15.695122 82.5100917,17.2042683 81.893578,19.4176829 Z" id="Shape"></path>
                        <path d="M122.480734,14.6890244 L117.034862,18.0091463 C116.212844,16.5 115.185321,15.8963415 113.746789,15.8963415 C111.075229,15.8963415 109.020183,19.4176829 109.020183,23.5426829 L109.020183,32.4969512 L103.06055,32.4969512 L103.06055,10.6646341 L109.020183,10.6646341 L109.020183,14.5884146 C110.150459,12.0731707 112.719266,10.2621951 115.59633,10.2621951 C118.678899,10.2621951 120.93945,11.8719512 122.480734,14.6890244 Z" id="Path"></path>
                        <path d="M131.72844,10.6646341 L131.72844,9.55792683 C131.72844,4.22560976 135.016514,0 140.873394,0 C144.161468,0 145.908257,0.603658537 147.449541,1.6097561 L145.188991,6.13719512 C142.517431,4.72865854 137.688073,5.13109756 137.688073,9.25609756 L137.688073,10.5640244 L147.449541,10.5640244 L147.449541,16.097561 L137.688073,16.097561 L137.688073,32.597561 L131.72844,32.597561 L131.72844,16.097561 L126.488073,16.097561 L126.488073,10.5640244 L131.72844,10.5640244 L131.72844,10.6646341 Z" id="Path"></path>
                        <path d="M172.726606,21.6310976 C172.726606,27.8689024 167.794495,33 161.526606,33 C154.847706,33 150.326606,27.9695122 150.326606,21.6310976 C150.326606,15.2926829 154.642202,10.2621951 161.526606,10.2621951 C167.794495,10.2621951 172.726606,15.2926829 172.726606,21.6310976 Z M166.766972,21.6310976 C166.766972,18.4115854 164.506422,15.7957317 161.526606,15.7957317 C158.546789,15.7957317 156.286239,18.4115854 156.286239,21.6310976 C156.286239,24.8506098 158.546789,27.4664634 161.526606,27.4664634 C164.506422,27.4664634 166.766972,24.8506098 166.766972,21.6310976 Z" id="Shape"></path>
                        <path d="M198.414679,21.6310976 C198.414679,27.8689024 193.482569,33 187.214679,33 C180.53578,33 176.014679,27.9695122 176.014679,21.6310976 C176.014679,15.2926829 180.330275,10.2621951 187.214679,10.2621951 C193.585321,10.2621951 198.414679,15.2926829 198.414679,21.6310976 Z M192.455046,21.6310976 C192.455046,18.4115854 190.194495,15.7957317 187.214679,15.7957317 C184.234862,15.7957317 181.974312,18.4115854 181.974312,21.6310976 C181.974312,24.8506098 184.234862,27.4664634 187.214679,27.4664634 C190.194495,27.4664634 192.455046,24.8506098 192.455046,21.6310976 Z" id="Shape"></path>
                        <path d="M224,0.402439024 L224,32.597561 L218.040367,32.597561 L218.040367,30.0823171 C216.807339,31.7926829 214.546789,33 211.875229,33 C206.018349,33 201.6,28.1707317 201.6,21.6310976 C201.6,15.0914634 206.018349,10.2621951 211.875229,10.2621951 C214.546789,10.2621951 216.807339,11.4695122 218.040367,13.0792683 L218.040367,0.402439024 L224,0.402439024 Z M218.040367,21.6310976 C218.040367,18.4115854 215.677064,15.7957317 212.8,15.7957317 C209.922936,15.7957317 207.559633,18.4115854 207.559633,21.6310976 C207.559633,24.8506098 209.922936,27.4664634 212.8,27.4664634 C215.677064,27.4664634 218.040367,24.8506098 218.040367,21.6310976 Z" id="Shape"></path>
                        <path d="M24.2495413,12.4756098 C24.2495413,10.4634146 25.893578,8.85365854 27.9486239,8.85365854 C30.0036697,8.85365854 31.6477064,10.4634146 31.6477064,12.4756098 C31.6477064,14.4878049 30.106422,16.097561 27.9486239,16.097561 C25.893578,16.097561 24.2495413,14.5884146 24.2495413,12.4756098 Z" id="Path"></path>
                    </g>
                    <g id="Group" transform="translate(9.000000, 39.000000)">
                        <path d="M8.11160714,9.8 C7.59821429,10.5 6.67410714,11.1 5.33928571,11.1 C3.08035714,11.1 1.95089286,9.8 1.95089286,7.3 L1.95089286,2.1 L0,2.1 L0,0.3 L4.00446429,0.3 L4.00446429,7.4 C4.00446429,8.7 4.51785714,9.3 5.33928571,9.3 C5.85267857,9.3 6.26339286,9.1 6.46875,8.7 L8.11160714,9.8 Z" id="Path"></path>
                        <polygon id="Path" points="12.4241071 0.3 14.375 0.3 13.65625 3.7 12.4241071 3.7"></polygon>
                        <path d="M24.7455357,11 L24.6428571,10.1 C24.1294643,10.7 23,11.1 22.0758929,11.1 C20.3303571,11.1 19.40625,10 19.40625,8.7 C19.40625,6.8 21.8705357,5.8 24.3348214,6.6 C24.2321429,5.7 23.8214286,5.3 22.6919643,5.3 C21.9732143,5.3 21.3571429,5.5 20.9464286,5.7 L20.2276786,4.3 C20.84375,3.9 21.6651786,3.5 23,3.5 C24.8482143,3.5 26.3883929,4.5 26.3883929,7.2 L26.3883929,10.9 L24.7455357,11 L24.7455357,11 Z M21.3571429,8.7 C21.3571429,9.3 21.8705357,9.6 22.5892857,9.6 C23.3080357,9.6 24.1294643,9 24.3348214,8 C22.7946429,7.4 21.3571429,7.8 21.3571429,8.7 Z" id="Shape"></path>
                        <path d="M36.5535714,9.8 C36.0401786,10.5 35.1160714,11.1 33.78125,11.1 C31.5223214,11.1 30.3928571,9.8 30.3928571,7.3 L30.3928571,2.1 L28.4419643,2.1 L28.4419643,0.3 L32.4464286,0.3 L32.4464286,7.4 C32.4464286,8.7 32.9598214,9.3 33.78125,9.3 C34.2946429,9.3 34.7053571,9.1 34.9107143,8.7 L36.5535714,9.8 Z" id="Path"></path>
                        <path d="M45.3839286,9.2 L45.3839286,11 L38.9151786,11 L38.9151786,9.2 L41.1741071,9.2 L41.1741071,5.6 L39.2232143,5.6 L39.2232143,3.8 L43.2276786,3.8 L43.2276786,9.3 L45.3839286,9.2 L45.3839286,9.2 Z M40.96875,1.2 C40.96875,0.5 41.4821429,0 42.2008929,0 C42.9196429,0 43.4330357,0.5 43.4330357,1.2 C43.4330357,1.9 42.9196429,2.4 42.2008929,2.4 C41.4821429,2.4 40.96875,1.9 40.96875,1.2 Z" id="Shape"></path>
                        <path d="M55.6517857,6.7 L55.6517857,11 L53.7008929,11 L53.7008929,6.7 C53.7008929,5.5 53.3928571,5.4 53.0848214,5.4 C52.7767857,5.4 52.46875,5.6 52.46875,7 L52.46875,11 L50.5178571,11 L50.5178571,6.7 C50.5178571,5.5 50.3125,5.4 50.0044643,5.4 C49.6964286,5.4 49.2857143,5.6 49.2857143,7 L49.2857143,11 L47.3348214,11 L47.3348214,3.7 L49.2857143,3.7 L49.2857143,4.5 C49.59375,3.9 50.0044643,3.6 50.6205357,3.6 C51.3392857,3.6 51.8526786,4.1 52.0580357,4.6 C52.3660714,4 52.8794643,3.6 53.7008929,3.6 C54.9330357,3.6 55.6517857,4.4 55.6517857,6.7 Z" id="Path"></path>
                        <path d="M64.4821429,8.1 L59.3482143,8.1 C59.5535714,8.8 60.1696429,9.3 61.09375,9.3 C61.8125,9.3 62.3258929,9 62.7366071,8.6 L64.0714286,9.8 C63.4553571,10.6 62.3258929,11.1 61.1964286,11.1 C58.8348214,11.1 57.3973214,9.4 57.3973214,7.3 C57.3973214,5.2 58.7321429,3.5 61.09375,3.5 C62.4285714,3.5 64.5848214,4.3 64.5848214,7.1 C64.5848214,7.5 64.4821429,7.8 64.4821429,8.1 Z M59.3482143,6.6 L62.53125,6.6 C62.4285714,6 61.9151786,5.4 60.9910714,5.4 C60.0669643,5.4 59.5535714,5.9 59.3482143,6.6 Z" id="Shape"></path>
                        <path d="M73.8258929,6.8 L73.8258929,10.9 L71.875,10.9 L71.875,6.8 C71.875,5.6 71.15625,5.3 70.5401786,5.3 C69.9241071,5.3 69.2053571,5.8 69.2053571,7 L69.2053571,10.9 L67.0491071,10.9 L67.0491071,3.6 L69,3.6 L69,4.4 C69.3080357,4 69.9241071,3.5 70.8482143,3.5 C72.4910714,3.6 73.8258929,4.6 73.8258929,6.8 Z" id="Path"></path>
                        <path d="M79.8839286,5.5 L79.8839286,8 C79.8839286,9.4 81.4241071,9.5 82.3482143,9 L83.0669643,10.5 C82.5535714,10.8 81.9375,11 80.9107143,11 C78.9598214,11 77.8303571,9.6 77.8303571,7.8 L77.8303571,5.4 L76.0848214,5.4 L76.0848214,3.6 L77.8303571,3.6 L77.8303571,1 L79.78125,0.4 L79.78125,3.6 L83.0669643,3.6 L83.0669643,5.4 L79.8839286,5.5 L79.8839286,5.5 Z" id="Path"></path>
                        <path d="M91.1785714,11 L91.0758929,10.1 C90.5625,10.7 89.4330357,11.1 88.5089286,11.1 C86.7633929,11.1 85.8392857,10 85.8392857,8.7 C85.8392857,6.8 88.3035714,5.8 90.7678571,6.6 C90.6651786,5.7 90.2544643,5.3 89.2276786,5.3 C88.5089286,5.3 87.8928571,5.5 87.4821429,5.7 L86.7633929,4.3 C87.3794643,3.9 88.2008929,3.5 89.5357143,3.5 C91.3839286,3.5 92.9241071,4.5 92.9241071,7.2 L92.9241071,10.9 L91.1785714,11 L91.1785714,11 Z M87.7901786,8.7 C87.7901786,9.3 88.3035714,9.6 89.0223214,9.6 C89.7410714,9.6 90.5625,9 90.7678571,8 C89.2276786,7.4 87.7901786,7.8 87.7901786,8.7 Z" id="Shape"></path>
                        <path d="M98.8794643,5.5 L98.8794643,8 C98.8794643,9.4 100.419643,9.5 101.34375,9 L102.0625,10.5 C101.549107,10.8 100.933036,11 99.90625,11 C97.9553571,11 96.8258929,9.6 96.8258929,7.8 L96.8258929,5.4 L95.0803571,5.4 L95.0803571,3.6 L96.8258929,3.6 L96.8258929,1 L98.7767857,0.4 L98.7767857,3.6 L102.0625,3.6 L102.0625,5.4 L98.8794643,5.5 L98.8794643,5.5 Z" id="Path"></path>
                        <path d="M111.919643,9.2 L111.919643,11 L105.450893,11 L105.450893,9.2 L107.709821,9.2 L107.709821,5.6 L105.758929,5.6 L105.758929,3.8 L109.763393,3.8 L109.763393,9.3 L111.919643,9.2 L111.919643,9.2 Z M107.401786,1.2 C107.401786,0.5 107.915179,0 108.633929,0 C109.352679,0 109.866071,0.5 109.866071,1.2 C109.866071,1.9 109.352679,2.4 108.633929,2.4 C107.915179,2.5 107.401786,1.9 107.401786,1.2 Z" id="Shape"></path>
                        <path d="M121.674107,7.3 C121.674107,9.4 120.03125,11.1 117.977679,11.1 C115.71875,11.1 114.28125,9.4 114.28125,7.3 C114.28125,5.2 115.71875,3.5 117.977679,3.5 C120.03125,3.6 121.674107,5.2 121.674107,7.3 Z M119.620536,7.3 C119.620536,6.2 118.901786,5.4 117.875,5.4 C116.848214,5.4 116.129464,6.3 116.129464,7.3 C116.129464,8.3 116.848214,9.2 117.875,9.2 C118.901786,9.3 119.620536,8.4 119.620536,7.3 Z" id="Shape"></path>
                        <path d="M130.709821,6.8 L130.709821,10.9 L128.758929,10.9 L128.758929,6.8 C128.758929,5.6 128.040179,5.3 127.424107,5.3 C126.808036,5.3 126.089286,5.8 126.089286,7 L126.089286,10.9 L124.138393,10.9 L124.138393,3.6 L126.089286,3.6 L126.089286,4.4 C126.397321,4 127.013393,3.5 127.9375,3.5 C129.477679,3.6 130.709821,4.6 130.709821,6.8 Z" id="Path"></path>
                        <path d="M149.910714,8.1 L144.776786,8.1 C144.982143,8.8 145.598214,9.3 146.522321,9.3 C147.241071,9.3 147.754464,9 148.165179,8.6 L149.5,9.8 C148.883929,10.6 147.754464,11.1 146.625,11.1 C144.263393,11.1 142.825893,9.4 142.825893,7.3 C142.825893,5.2 144.160714,3.5 146.522321,3.5 C147.857143,3.5 150.013393,4.3 150.013393,7.1 C150.013393,7.5 149.910714,7.8 149.910714,8.1 Z M144.776786,6.6 L147.959821,6.6 C147.857143,6 147.34375,5.4 146.419643,5.4 C145.495536,5.4 144.982143,5.9 144.776786,6.6 Z" id="Shape"></path>
                        <path d="M159.254464,6.8 L159.254464,10.9 L157.303571,10.9 L157.303571,6.8 C157.303571,5.6 156.584821,5.3 155.96875,5.3 C155.352679,5.3 154.633929,5.8 154.633929,7 L154.633929,10.9 L152.683036,10.9 L152.683036,3.6 L154.633929,3.6 L154.633929,4.4 C154.941964,4 155.558036,3.5 156.482143,3.5 C157.919643,3.6 159.254464,4.6 159.254464,6.8 Z" id="Path"></path>
                        <path d="M169.008929,12.2 C169.008929,13.9 167.46875,15 165.3125,15 C162.950893,15 161.616071,13.9 161.616071,12.2 C161.616071,11.2 162.129464,10.5 162.745536,10.1 C162.540179,9.8 162.334821,8.8 162.950893,8 C162.4375,7.5 162.232143,6.9 162.232143,6.2 C162.232143,4.7 163.464286,3.5 165.3125,3.5 C165.928571,3.5 166.544643,3.7 167.058036,3.9 L168.084821,3 L169.214286,4.2 L168.1875,5.1 C168.392857,5.4 168.392857,5.8 168.392857,6.1 C168.392857,7.6 167.058036,8.7 165.3125,8.7 C165.004464,8.7 164.696429,8.7 164.491071,8.6 C164.388393,8.9 164.491071,9.3 165.620536,9.4 C167.571429,9.6 169.008929,10.4 169.008929,12.2 Z M166.955357,12.2 C166.955357,11.6 166.441964,11.3 165.415179,11.3 C164.901786,11.3 164.285714,11.3 164.080357,11.2 C163.669643,11.4 163.464286,11.7 163.464286,12.1 C163.464286,12.7 163.977679,13.2 165.209821,13.2 C166.339286,13.2 166.955357,12.7 166.955357,12.2 Z M164.080357,6.2 C164.080357,6.7 164.59375,7.1 165.209821,7.1 C165.825893,7.1 166.339286,6.7 166.339286,6.2 C166.339286,5.7 165.825893,5.3 165.209821,5.3 C164.59375,5.4 164.080357,5.8 164.080357,6.2 Z" id="Shape"></path>
                        <path d="M176.607143,11 L176.504464,10.1 C175.991071,10.7 174.861607,11.1 173.9375,11.1 C172.191964,11.1 171.267857,10 171.267857,8.7 C171.267857,6.8 173.732143,5.8 176.196429,6.6 C176.09375,5.7 175.683036,5.3 174.65625,5.3 C173.9375,5.3 173.321429,5.5 172.910714,5.7 L172.191964,4.3 C172.808036,3.9 173.629464,3.5 174.964286,3.5 C176.8125,3.5 178.352679,4.5 178.352679,7.2 L178.352679,10.9 L176.607143,11 L176.607143,11 Z M173.21875,8.7 C173.21875,9.3 173.732143,9.6 174.450893,9.6 C175.169643,9.6 175.991071,9 176.196429,8 C174.65625,7.4 173.21875,7.8 173.21875,8.7 Z" id="Shape"></path>
                        <path d="M187.901786,12.2 C187.901786,13.9 186.361607,15 184.205357,15 C181.84375,15 180.508929,13.9 180.508929,12.2 C180.508929,11.2 181.022321,10.5 181.638393,10.1 C181.433036,9.8 181.227679,8.8 181.84375,8 C181.330357,7.5 181.125,6.9 181.125,6.2 C181.125,4.7 182.357143,3.5 184.205357,3.5 C184.821429,3.5 185.4375,3.7 185.950893,3.9 L186.977679,3 L188.107143,4.2 L187.080357,5.1 C187.285714,5.4 187.285714,5.8 187.285714,6.1 C187.285714,7.6 185.950893,8.7 184.205357,8.7 C183.897321,8.7 183.589286,8.7 183.383929,8.6 C183.28125,8.9 183.383929,9.3 184.513393,9.4 C186.566964,9.6 187.901786,10.4 187.901786,12.2 Z M185.950893,12.2 C185.950893,11.6 185.4375,11.3 184.410714,11.3 C183.897321,11.3 183.28125,11.3 183.075893,11.2 C182.665179,11.4 182.459821,11.7 182.459821,12.1 C182.459821,12.7 182.973214,13.2 184.205357,13.2 C185.334821,13.2 185.950893,12.7 185.950893,12.2 Z M183.075893,6.2 C183.075893,6.7 183.589286,7.1 184.205357,7.1 C184.821429,7.1 185.334821,6.7 185.334821,6.2 C185.334821,5.7 184.821429,5.3 184.205357,5.3 C183.589286,5.3 183.075893,5.8 183.075893,6.2 Z" id="Shape"></path>
                        <path d="M197.348214,8.1 L192.214286,8.1 C192.419643,8.8 193.035714,9.3 193.959821,9.3 C194.678571,9.3 195.191964,9 195.602679,8.6 L196.9375,9.8 C196.321429,10.6 195.191964,11.1 194.0625,11.1 C191.700893,11.1 190.263393,9.4 190.263393,7.3 C190.263393,5.2 191.598214,3.5 193.959821,3.5 C195.294643,3.5 197.450893,4.3 197.450893,7.1 C197.450893,7.5 197.450893,7.8 197.348214,8.1 Z M192.214286,6.6 L195.397321,6.6 C195.294643,6 194.78125,5.4 193.857143,5.4 C192.933036,5.4 192.419643,5.9 192.214286,6.6 Z M194.0625,2.7 L192.830357,2.7 L193.857143,0.3 L195.602679,0.3 L194.0625,2.7 Z" id="Shape"></path>
                        <path d="M206.897321,8.1 L201.763393,8.1 C201.96875,8.8 202.584821,9.3 203.508929,9.3 C204.227679,9.3 204.741071,9 205.151786,8.6 L206.486607,9.8 C205.870536,10.6 204.741071,11.1 203.611607,11.1 C201.25,11.1 199.8125,9.4 199.8125,7.3 C199.8125,5.2 201.147321,3.5 203.508929,3.5 C204.84375,3.5 207,4.3 207,7.1 C206.897321,7.5 206.897321,7.8 206.897321,8.1 Z M201.763393,6.6 L204.946429,6.6 C204.84375,6 204.330357,5.4 203.40625,5.4 C202.482143,5.4 201.96875,5.9 201.763393,6.6 Z" id="Shape"></path>
                    </g>
                </g>
            </g>
        </g>
    </g>
</svg>