<svg width="224" height="54" xmlns="http://www.w3.org/2000/svg"><g id="Page-1" stroke="none" stroke-width="1" fill="none" fill-rule="evenodd"><g id="index-copy-9" transform="translate(-526 -4946)" fill="#000" fill-rule="nonzero"><g id="footer" transform="translate(0 4873)"><g id="logo-alterfood-black" transform="translate(526 73)"><g id="Group"><path d="M17.776 25.957H8.528l-1.952 6.54H0L10.48.302h5.241l10.48 32.195h-6.575l-1.85-6.54Zm-1.438-5.13L13.255 9.96l-3.083 10.866h6.166Z" id="Shape"/><path d="M52.815 28.875c-1.542 2.113-4.419 4.024-8.22 4.024-6.68 0-10.173-3.923-10.173-11.57V5.835h-10.48V.402h16.542v21.53c0 3.824 1.542 5.534 4.008 5.534 1.644 0 2.671-.704 3.493-1.81l4.83 3.219ZM62.165 16.098v7.545c0 4.125 4.727 4.528 7.501 3.12l2.26 4.527c-1.54 1.006-3.287 1.61-6.576 1.61-5.856 0-9.144-4.226-9.144-9.559v-7.243h-5.96v-5.534h5.96V2.918l5.96-1.811v9.558h9.76v5.433h-9.76Z" id="Path"/><path d="M97.204 23.744H81.996c.617 2.113 2.364 3.622 5.24 3.622 2.056 0 3.803-1.006 4.83-2.012l3.905 3.521c-1.747 2.415-5.343 4.024-8.734 4.024-6.987 0-11.406-5.03-11.406-11.369 0-6.338 4.11-11.368 11.2-11.368 4.11 0 10.48 2.414 10.48 10.966-.102.906-.205 1.71-.307 2.616Zm-15.31-4.326h9.556c-.206-1.811-1.747-3.622-4.624-3.622-2.775-.1-4.316 1.408-4.932 3.622Z" id="Shape"/><path d="m122.48 14.689-5.445 3.32c-.822-1.509-1.85-2.113-3.288-2.113-2.672 0-4.727 3.522-4.727 7.647v8.954h-5.96V10.665h5.96v3.923c1.13-2.515 3.7-4.326 6.576-4.326 3.083 0 5.343 1.61 6.885 4.427ZM131.728 10.665V9.558c0-5.332 3.289-9.558 9.145-9.558 3.288 0 5.035.604 6.577 1.61l-2.261 4.527c-2.672-1.408-7.5-1.006-7.5 3.12v1.307h9.76v5.534h-9.76v16.5h-5.96v-16.5h-5.24v-5.534h5.24v.1Z" id="Path"/><path d="M172.727 21.631c0 6.238-4.933 11.369-11.2 11.369-6.68 0-11.2-5.03-11.2-11.369 0-6.338 4.315-11.369 11.2-11.369 6.267 0 11.2 5.03 11.2 11.37Zm-5.96 0c0-3.22-2.26-5.835-5.24-5.835-2.98 0-5.24 2.616-5.24 5.835 0 3.22 2.26 5.835 5.24 5.835 2.98 0 5.24-2.615 5.24-5.835ZM198.415 21.631c0 6.238-4.932 11.369-11.2 11.369-6.68 0-11.2-5.03-11.2-11.369 0-6.338 4.315-11.369 11.2-11.369 6.37 0 11.2 5.03 11.2 11.37Zm-5.96 0c0-3.22-2.26-5.835-5.24-5.835-2.98 0-5.24 2.616-5.24 5.835 0 3.22 2.26 5.835 5.24 5.835 2.98 0 5.24-2.615 5.24-5.835ZM224 .402v32.196h-5.96v-2.516c-1.233 1.71-3.493 2.918-6.165 2.918-5.857 0-10.275-4.83-10.275-11.369 0-6.54 4.418-11.369 10.275-11.369 2.672 0 4.932 1.208 6.165 2.817V.402H224Zm-5.96 21.23c0-3.22-2.363-5.836-5.24-5.836-2.877 0-5.24 2.616-5.24 5.835 0 3.22 2.363 5.835 5.24 5.835 2.877 0 5.24-2.615 5.24-5.835Z" id="Shape"/><path d="M24.25 12.476c0-2.013 1.644-3.622 3.699-3.622 2.055 0 3.699 1.61 3.699 3.622 0 2.012-1.542 3.622-3.7 3.622-2.054 0-3.698-1.51-3.698-3.622Z" id="Path"/></g><g id="Group" transform="translate(9 39)"><path d="M8.112 9.8c-.514.7-1.438 1.3-2.773 1.3-2.259 0-3.388-1.3-3.388-3.8V2.1H0V.3h4.004v7.1c0 1.3.514 1.9 1.335 1.9.514 0 .924-.2 1.13-.6l1.643 1.1ZM12.424.3h1.951l-.719 3.4h-1.232z" id="Path"/><path d="m24.746 11-.103-.9c-.514.6-1.643 1-2.567 1-1.746 0-2.67-1.1-2.67-2.4 0-1.9 2.465-2.9 4.929-2.1-.103-.9-.514-1.3-1.643-1.3-.719 0-1.335.2-1.746.4l-.718-1.4c.616-.4 1.437-.8 2.772-.8 1.848 0 3.388 1 3.388 3.7v3.7l-1.642.1Zm-3.389-2.3c0 .6.514.9 1.232.9.719 0 1.54-.6 1.746-1.6-1.54-.6-2.978-.2-2.978.7Z" id="Shape"/><path d="M36.554 9.8c-.514.7-1.438 1.3-2.773 1.3-2.259 0-3.388-1.3-3.388-3.8V2.1h-1.951V.3h4.004v7.1c0 1.3.514 1.9 1.335 1.9.514 0 .924-.2 1.13-.6l1.643 1.1Z" id="Path"/><path d="M45.384 9.2V11h-6.469V9.2h2.26V5.6h-1.952V3.8h4.005v5.5l2.156-.1Zm-4.415-8c0-.7.513-1.2 1.232-1.2s1.232.5 1.232 1.2-.513 1.2-1.232 1.2-1.232-.5-1.232-1.2Z" id="Shape"/><path d="M55.652 6.7V11H53.7V6.7c0-1.2-.308-1.3-.616-1.3s-.616.2-.616 1.6v4h-1.951V6.7c0-1.2-.206-1.3-.514-1.3-.308 0-.718.2-.718 1.6v4h-1.951V3.7h1.95v.8c.309-.6.72-.9 1.336-.9.718 0 1.232.5 1.437 1 .308-.6.821-1 1.643-1 1.232 0 1.95.8 1.95 3.1Z" id="Path"/><path d="M64.482 8.1h-5.134c.206.7.822 1.2 1.746 1.2.718 0 1.232-.3 1.643-.7l1.334 1.2c-.616.8-1.745 1.3-2.875 1.3-2.361 0-3.799-1.7-3.799-3.8 0-2.1 1.335-3.8 3.697-3.8 1.335 0 3.49.8 3.49 3.6 0 .4-.102.7-.102 1Zm-5.134-1.5h3.183c-.102-.6-.616-1.2-1.54-1.2s-1.437.5-1.643 1.2Z" id="Shape"/><path d="M73.826 6.8v4.1h-1.951V6.8c0-1.2-.719-1.5-1.335-1.5s-1.335.5-1.335 1.7v3.9H67.05V3.6H69v.8c.308-.4.924-.9 1.848-.9 1.643.1 2.978 1.1 2.978 3.3ZM79.884 5.5V8c0 1.4 1.54 1.5 2.464 1l.719 1.5c-.513.3-1.13.5-2.156.5-1.951 0-3.08-1.4-3.08-3.2V5.4h-1.746V3.6h1.745V1l1.951-.6v3.2h3.286v1.8l-3.183.1Z" id="Path"/><path d="m91.179 11-.103-.9c-.513.6-1.643 1-2.567 1-1.746 0-2.67-1.1-2.67-2.4 0-1.9 2.465-2.9 4.929-2.1-.103-.9-.514-1.3-1.54-1.3-.72 0-1.335.2-1.746.4l-.719-1.4c.616-.4 1.438-.8 2.773-.8 1.848 0 3.388 1 3.388 3.7v3.7l-1.745.1ZM87.79 8.7c0 .6.514.9 1.232.9.72 0 1.54-.6 1.746-1.6-1.54-.6-2.978-.2-2.978.7Z" id="Shape"/><path d="M98.88 5.5V8c0 1.4 1.54 1.5 2.464 1l.719 1.5c-.514.3-1.13.5-2.157.5-1.95 0-3.08-1.4-3.08-3.2V5.4H95.08V3.6h1.746V1l1.95-.6v3.2h3.287v1.8l-3.184.1Z" id="Path"/><path d="M111.92 9.2V11h-6.47V9.2h2.26V5.6h-1.951V3.8h4.004v5.5l2.157-.1Zm-4.518-8c0-.7.513-1.2 1.232-1.2s1.232.5 1.232 1.2-.513 1.2-1.232 1.2c-.719.1-1.232-.5-1.232-1.2ZM121.674 7.3c0 2.1-1.643 3.8-3.696 3.8-2.26 0-3.697-1.7-3.697-3.8 0-2.1 1.438-3.8 3.697-3.8 2.053.1 3.696 1.7 3.696 3.8Zm-2.053 0c0-1.1-.72-1.9-1.746-1.9-1.027 0-1.746.9-1.746 1.9 0 1 .72 1.9 1.746 1.9 1.027.1 1.746-.8 1.746-1.9Z" id="Shape"/><path d="M130.71 6.8v4.1h-1.951V6.8c0-1.2-.719-1.5-1.335-1.5s-1.335.5-1.335 1.7v3.9h-1.95V3.6h1.95v.8c.308-.4.924-.9 1.849-.9 1.54.1 2.772 1.1 2.772 3.3Z" id="Path"/><path d="M149.91 8.1h-5.133c.205.7.821 1.2 1.745 1.2.72 0 1.232-.3 1.643-.7l1.335 1.2c-.616.8-1.746 1.3-2.875 1.3-2.362 0-3.8-1.7-3.8-3.8 0-2.1 1.336-3.8 3.697-3.8 1.335 0 3.491.8 3.491 3.6 0 .4-.102.7-.102 1Zm-5.133-1.5h3.183c-.103-.6-.616-1.2-1.54-1.2s-1.438.5-1.643 1.2Z" id="Shape"/><path d="M159.254 6.8v4.1h-1.95V6.8c0-1.2-.72-1.5-1.335-1.5-.616 0-1.335.5-1.335 1.7v3.9h-1.951V3.6h1.95v.8c.309-.4.925-.9 1.85-.9 1.437.1 2.771 1.1 2.771 3.3Z" id="Path"/><path d="M169.009 12.2c0 1.7-1.54 2.8-3.696 2.8-2.362 0-3.697-1.1-3.697-2.8 0-1 .513-1.7 1.13-2.1-.206-.3-.411-1.3.205-2.1-.513-.5-.719-1.1-.719-1.8 0-1.5 1.232-2.7 3.08-2.7.617 0 1.233.2 1.746.4l1.027-.9 1.13 1.2-1.028.9c.206.3.206.7.206 1 0 1.5-1.335 2.6-3.08 2.6-.309 0-.617 0-.822-.1-.103.3 0 .7 1.13.8 1.95.2 3.388 1 3.388 2.8Zm-2.054 0c0-.6-.513-.9-1.54-.9-.513 0-1.13 0-1.335-.1-.41.2-.616.5-.616.9 0 .6.514 1.1 1.746 1.1 1.13 0 1.745-.5 1.745-1Zm-2.875-6c0 .5.514.9 1.13.9.616 0 1.13-.4 1.13-.9s-.514-.9-1.13-.9c-.616.1-1.13.5-1.13.9ZM176.607 11l-.103-.9c-.513.6-1.642 1-2.566 1-1.746 0-2.67-1.1-2.67-2.4 0-1.9 2.464-2.9 4.928-2.1-.102-.9-.513-1.3-1.54-1.3-.719 0-1.335.2-1.745.4l-.719-1.4c.616-.4 1.437-.8 2.772-.8 1.849 0 3.389 1 3.389 3.7v3.7l-1.746.1Zm-3.388-2.3c0 .6.513.9 1.232.9s1.54-.6 1.745-1.6c-1.54-.6-2.977-.2-2.977.7ZM187.902 12.2c0 1.7-1.54 2.8-3.697 2.8-2.361 0-3.696-1.1-3.696-2.8 0-1 .513-1.7 1.13-2.1-.206-.3-.411-1.3.205-2.1-.514-.5-.719-1.1-.719-1.8 0-1.5 1.232-2.7 3.08-2.7.616 0 1.232.2 1.746.4l1.027-.9 1.13 1.2-1.028.9c.206.3.206.7.206 1 0 1.5-1.335 2.6-3.08 2.6-.309 0-.617 0-.822-.1-.103.3 0 .7 1.13.8 2.053.2 3.388 1 3.388 2.8Zm-1.951 0c0-.6-.513-.9-1.54-.9-.514 0-1.13 0-1.335-.1-.41.2-.616.5-.616.9 0 .6.513 1.1 1.745 1.1 1.13 0 1.746-.5 1.746-1Zm-2.875-6c0 .5.513.9 1.13.9.615 0 1.129-.4 1.129-.9s-.514-.9-1.13-.9c-.616 0-1.13.5-1.13.9ZM197.348 8.1h-5.134c.206.7.822 1.2 1.746 1.2.719 0 1.232-.3 1.643-.7l1.334 1.2c-.616.8-1.745 1.3-2.875 1.3-2.361 0-3.799-1.7-3.799-3.8 0-2.1 1.335-3.8 3.697-3.8 1.335 0 3.49.8 3.49 3.6 0 .4 0 .7-.102 1Zm-5.134-1.5h3.183c-.102-.6-.616-1.2-1.54-1.2s-1.437.5-1.643 1.2Zm1.849-3.9h-1.233l1.027-2.4h1.746l-1.54 2.4ZM206.897 8.1h-5.134c.206.7.822 1.2 1.746 1.2.719 0 1.232-.3 1.643-.7l1.335 1.2c-.616.8-1.746 1.3-2.875 1.3-2.362 0-3.8-1.7-3.8-3.8 0-2.1 1.335-3.8 3.697-3.8 1.335 0 3.491.8 3.491 3.6-.103.4-.103.7-.103 1Zm-5.134-1.5h3.183c-.102-.6-.616-1.2-1.54-1.2s-1.437.5-1.643 1.2Z" id="Shape"/></g></g></g></g></g></svg>